<svg version="1.1" viewBox="0.0 0.0 383.01574803149606 120.0" fill="none" stroke="none" stroke-linecap="square"
     stroke-miterlimit="10" xmlns:xlink="http://www.w3.org/1999/xlink" xmlns="http://www.w3.org/2000/svg">
    <clipPath id="p.0">
        <path d="m0 0l383.01575 0l0 120.0l-383.01575 0l0 -120.0z" clip-rule="nonzero"/>
    </clipPath>
    <g clip-path="url(#p.0)">
        <path fill="#000000" fill-opacity="0.0" d="m0 0l383.01575 0l0 120.0l-383.01575 0z" fill-rule="evenodd"/>
        <g filter="url(#shadowFilter-p.1)">
            <use xlink:href="#p.1" transform="matrix(1.0 0.0 0.0 1.0 0.0 2.0)"/>
        </g>
        <defs>
            <filter id="shadowFilter-p.1" filterUnits="userSpaceOnUse">
                <feGaussianBlur in="SourceAlpha" stdDeviation="2.0" result="blur"/>
                <feComponentTransfer in="blur" color-interpolation-filters="sRGB">
                    <feFuncR type="linear" slope="0" intercept="0.0"/>
                    <feFuncG type="linear" slope="0" intercept="0.0"/>
                    <feFuncB type="linear" slope="0" intercept="0.0"/>
                    <feFuncA type="linear" slope="0.9" intercept="0"/>
                </feComponentTransfer>
            </filter>
        </defs>
        <g id="p.1">
            <path fill="#000000" fill-opacity="0.0" d="m36.48294 3.839895l310.04724 0l0 89.76378l-310.04724 0z"
                  fill-rule="evenodd"/>
            <path fill="#ffffff"
                  d="m97.48175 52.473034q-0.265625 0.609375 -1.96875 0.953125q-1.703125 0.328125 -5.46875 0.765625q-1.109375 0.078125 -3.28125 0.171875q-2.171875 0.078125 -4.6875 0.171875q-2.515625 0.078125 -4.5625 0.03125q-2.046875 -0.046875 -2.828125 -0.21875q0 0 -0.390625 0.4375q-0.375 0.421875 -0.375 1.109375q-0.59375 1.015625 -1.5 3.15625q-0.890625 2.125 -1.953125 4.6875q-1.0625 2.5625038 -1.96875 5.125004q-0.890625 2.5625 -1.484375 4.4375q-0.59375 1.875 -0.59375 2.5625q-0.765625 2.046875 -0.9375 3.5q-0.171875 1.4375 -0.609375 1.703125q-0.078125 0.34375 -1.109375 0.171875q-1.015625 -0.171875 -1.703125 -0.9375q-1.015625 -0.78125 -1.15625 -1.40625q-0.125 -0.640625 0.484375 -2.53125q0.25 -1.109375 0.890625 -3.28125q0.640625 -2.171875 1.453125 -4.8125q0.8125 -2.65625 1.703125 -5.171879q0.890625 -2.515625 1.75 -4.140625q0.9375 -1.609375 1.1875 -2.9375q0.265625 -1.328125 0.6875 -2.4375q-0.078125 -0.9375 0 -1.265625q0.09375 -0.34375 0.6875 -1.03125q0.421875 -0.34375 1.0625 -1.234375q0.640625 -0.90625 1.5 -2.78125q0.25 -0.84375 0.796875 -2.34375q0.5625 -1.5 1.0625 -3.078125q0.515625 -1.578125 0.9375 -2.6875q0.4375 -1.109375 0.4375 -1.1875q0.171875 -0.34375 0.515625 -1.3125q0.34375 -0.984375 0.515625 -1.59375q0.328125 -1.1875 0.546875 -1.953125q0.21875 -0.765625 -0.125 -0.765625q-0.6875 0.15625 -2.734375 0.25q-1.015625 0.171875 -1.484375 0.21875q-0.46875 0.03125 -0.8125 0.125q-0.859375 0.078125 -1.546875 -0.171875q-0.671875 -0.265625 -0.671875 -1.0312481q0.171875 -1.359375 0.96875 -2.25q0.8125 -0.90625 2.09375 -0.984375q0.609375 -0.171875 1.328125 -0.296875q0.71875 -0.140625 2.0 -0.46875q1.625 -0.34375 2.515625 -0.5625q0.90625 -0.21875 1.421875 -0.046875q0.421875 -0.25 0.765625 -0.546875q0.34375 -0.296875 0.34375 -0.640625q0 -0.421875 0.375 -0.640625q0.390625 -0.21875 0.890625 -0.25q0.515625 -0.046875 1.0625 0.125q0.5625 0.171875 0.828125 0.59375q0.15625 0.25 0.75 0.421875q0.609375 0.171875 2.1875 -0.03125q1.578125 -0.21875 4.484375 -0.8125q1.53125 -0.171875 3.875 -0.34375q2.34375 -0.171875 3.71875 0.25q1.453125 -0.25 2.59375 -0.203125q1.15625 0.03125 1.578125 -0.3125q1.796875 0.34375 2.609375 0.484375q0.8125 0.125 1.328125 0.546875q0.328125 0.34375 0.203125 0.640625q-0.125 0.296875 -0.125 0.296875q-0.34375 -0.171875 0.078125 0.046875q0.4375 0.203125 0.609375 0.375q0.59375 0.265625 0.765625 0.65625q0.171875 0.375 0.171875 0.71875q0 0.34375 -0.09375 0.59375q-0.078125 0.765625 -0.84375 0.90625q-0.765625 0.125 -3.84375 0.03125q-3.671875 -0.515625 -7.21875 -0.375q-3.53125 0.125 -8.234375 0.796875q-1.703125 0.09375 -3.03125 0.484375q-1.3125 0.375 -1.484375 0.375q-0.34375 0 -1.203125 1.1562481q-0.84375 1.140625 -1.609375 3.359375q-0.34375 0.609375 -1.203125 2.75q-0.84375 2.125 -1.828125 4.59375q-0.984375 2.46875 -1.71875 4.359375q-0.71875 1.875 -0.890625 2.046875q1.203125 0.328125 3.890625 0.328125q2.6875 0 5.96875 -0.203125q3.28125 -0.21875 6.015625 -0.46875q1.28125 -0.265625 2.6875 -0.46875q1.40625 -0.21875 1.84375 -0.046875q0.421875 0.25 0.765625 0.984375q0.34375 0.71875 0.46875 1.5q0.125 0.765625 -0.125 1.265625zm4.432495 23.984379q-0.765625 -0.59375 -1.078125 -1.1875q-0.296875 -0.609375 -0.03125 -2.3125q0.25 -2.390625 0.671875 -4.21875q0.4375 -1.84375 1.03125 -4.234375q0.171875 -1.0156288 0.984375 -3.4843788q0.8125 -2.484375 2.0 -5.375q1.203125 -2.90625 2.390625 -5.5q1.203125 -2.609375 2.046875 -3.890625q0.6875 -0.515625 1.65625 -0.421875q0.984375 0.078125 1.671875 0.765625q0.9375 0.765625 0.296875 2.6875q-0.640625 1.90625 -2.59375 6.015625q-1.03125 2.296875 -1.546875 3.453125q-0.5 1.140625 -0.421875 1.359375q0.09375 0.21875 0.765625 -0.21875q0.515625 -0.9375 1.875 -2.171875q1.375 -1.234375 2.90625 -2.421875q1.53125 -1.203125 2.890625 -2.140625q1.375 -0.9375 1.890625 -1.1875q0.6875 -0.4375 1.578125 -0.734375q0.890625 -0.296875 1.234375 -0.46875q1.96875 -0.9375 4.015625 -0.671875q2.046875 0.25 2.5625 1.53125q0.078125 0.671875 0.546875 1.015625q0.46875 0.34375 0.46875 0.34375q0.34375 0 0.375 0.265625q0.046875 0.25 0.046875 0.25q0 0.59375 -0.890625 0.71875q-0.890625 0.125 -2.265625 0.21875q-1.109375 0.078125 -1.96875 0.421875q-0.84375 0.34375 -2.03125 0.859375q-3.25 1.875 -6.203125 3.671875q-2.9375 1.78125 -5.65625 4.765629q-0.609375 0.6875 -1.203125 1.625q-0.59375 0.9375 -1.28125 2.046875q-0.421875 0.4375 -0.859375 1.890625q-0.421875 1.4375 -0.71875 2.765625q-0.296875 1.328125 -0.296875 1.578125q0 0 -0.265625 0.8125q-0.25 0.8125 -0.84375 1.578125q-1.015625 1.359375 -1.703125 1.359375q-0.6875 0 -2.046875 -1.359375zm29.260208 -0.09375q-0.34375 -0.671875 -0.859375 -1.046875q-0.5 -0.390625 -0.5 -0.734375q0 -0.34375 -0.046875 -0.71875q-0.046875 -0.390625 -0.375 -0.734375q-0.4375 -0.515625 0.078125 -2.34375q0.515625 -1.84375 1.703125 -4.53125q1.203125 -2.6875038 2.828125 -5.671879q0.671875 -0.6875 1.359375 -1.796875q0.6875 -1.109375 1.015625 -1.4375q0 -0.34375 0.25 -0.640625q0.265625 -0.296875 0.609375 -0.296875l0 -0.515625q0 -0.4375 0.8125 -1.453125q0.8125 -1.03125 2.0 -2.265625q1.203125 -1.234375 2.484375 -2.375q1.28125 -1.15625 2.125 -1.671875q1.796875 -1.203125 3.71875 -1.453125q1.921875 -0.25 3.28125 0.859375q0.25 0.25 0.84375 0.84375q0.609375 0.59375 1.421875 1.328125q0.8125 0.71875 1.65625 1.484375l3.15625 2.828125l-1.53125 4.265625q-1.109375 3.40625 -0.5625 5.968754q0.5625 2.5625 1.671875 4.4375q0.421875 0.9375 1.75 1.796875q1.328125 0.84375 2.515625 1.015625q0.6875 0.09375 1.28125 0.515625q0.59375 0.421875 0.59375 1.359375q0 0.859375 -0.34375 1.375q-0.34375 0.5 -1.1875 0.671875q-2.8125 0.34375 -5.25 -1.359375q-2.4375 -1.703125 -4.484375 -5.625q-0.34375 -0.515625 -0.90625 -1.921875q-0.546875 -1.40625 -0.625 -1.84375q-0.34375 0.4375 -1.28125 1.59375q-0.9375 1.140625 -1.453125 1.65625q-6.0625 6.140625 -10.453125 8.234375q-4.390625 2.09375 -7.296875 0.203125zm3.078125 -4.765625q0 0.59375 1.828125 -0.046875q1.84375 -0.640625 3.96875 -2.34375q2.90625 -2.484375 5.84375 -5.468754q2.953125 -2.984375 4.734375 -5.546875l1.890625 -3.0625q-0.859375 -1.96875 -1.84375 -2.6875q-0.984375 -0.734375 -1.65625 -0.734375q-1.109375 0 -3.296875 2.046875q-2.171875 2.046875 -4.65625 5.46875q-2.46875 3.40625 -4.6875 7.500004q-0.84375 1.71875 -1.484375 3.296875q-0.640625 1.578125 -0.640625 1.578125zm60.069626 6.8125q-0.859375 0 -1.75 -0.9375q-0.890625 -0.9375 -1.53125 -2.34375q-0.640625 -1.40625 -0.640625 -2.6875q0 -1.28125 0.640625 -4.78125q0.640625 -3.5 1.578125 -7.078129q0.671875 -2.21875 0.421875 -2.5625q-0.25 -0.34375 -2.296875 0.9375q-1.203125 0.609375 -2.140625 1.25q-0.9375 0.640625 -1.625 1.40625q-0.421875 0.328125 -1.28125 1.109375q-0.84375 0.765625 -1.78125 1.4375038q-1.109375 0.859375 -2.828125 2.40625q-1.703125 1.53125 -3.375 3.0625q-1.65625 1.53125 -2.5 2.390625q-0.171875 0.34375 -0.515625 0.609375q-0.34375 0.25 -0.765625 0.296875q-0.421875 0.03125 -0.9375 -0.140625q-0.9375 -0.25 -1.75 -1.109375q-0.8125 -0.859375 -0.8125 -1.96875q0 -0.84375 0.671875 -2.9375q0.6875 -2.09375 1.84375 -5.078129q1.15625 -2.984375 2.6875 -6.3125q0.25 -0.421875 0.421875 -1.0625q0.171875 -0.640625 0.296875 -1.40625q0.140625 -0.78125 0.140625 -1.453125q0 -0.4375 0.125 -0.90625q0.125 -0.46875 0.328125 -0.9375q0.21875 -0.46875 0.390625 -0.640625q0.34375 -0.671875 1.1875 -0.375q0.859375 0.296875 1.46875 1.234375q1.265625 1.1875 1.3125 2.984375q0.046875 1.796875 -0.890625 4.4375q-0.34375 0.59375 -0.5625 1.15625q-0.203125 0.546875 -0.375 0.9375q-0.171875 0.390625 -0.265625 0.609375q-0.078125 0.203125 -0.078125 0.203125q0.34375 0 1.53125 -0.765625q1.203125 -0.765625 2.8125 -1.71875q1.28125 -0.9375 2.265625 -1.734375q0.984375 -0.8125 1.65625 -1.28125q0.6875 -0.46875 0.859375 -0.46875q0.34375 0 0.859375 -0.25q0.515625 -0.265625 0.84375 -0.609375q0.34375 -0.34375 0.5625 -0.375q0.21875 -0.046875 0.21875 -0.046875q0 0 0.328125 -0.046875q0.34375 -0.046875 0.6875 -0.390625q0.6875 -0.5 1.796875 -0.28125q1.109375 0.203125 2.046875 0.890625q0.9375 0.671875 0.9375 1.53125q0 0.34375 0.203125 0.5625q0.21875 0.203125 0.21875 0.203125q0.6875 0 0.890625 2.140625q0.21875 2.125 -0.453125 4.09375q0 1.28125 -0.46875 3.0781288q-0.46875 1.78125 -0.8125 3.40625q-0.6875 2.125 -0.953125 3.75q-0.25 1.625 -0.078125 2.734375q0.171875 1.109375 0.59375 1.78125q0.34375 0.609375 0 1.328125q-0.328125 0.71875 -1.359375 0.71875zm23.288269 4.109375q-3.234375 0 -5.921875 -1.109375q-2.6875 -1.109375 -3.375 -4.78125q0.09375 -1.875 0.21875 -2.390625q0.125 -0.515625 0.640625 -0.515625q0.34375 0 0.546875 -0.125q0.21875 -0.125 0.21875 -0.71875q0.078125 -1.28125 0.421875 -3.109375q0.34375 -1.84375 0.859375 -3.5q0.515625 -1.671875 0.9375 -2.3593788q0.421875 -1.625 1.3125 -4.34375q0.90625 -2.734375 1.875 -5.765625q0.984375 -3.03125 1.84375 -5.5q0.859375 -2.484375 1.28125 -3.5q0.421875 -1.109375 1.1875 -2.9375q0.78125 -1.84375 1.109375 -3.203125q0.609375 -1.453125 1.28125 -3.328125q0.6875 -1.875 1.28125 -2.828125l1.109375 -2.468748l-1.953125 -1.703125q-1.203125 -1.203125 -1.203125 -2.3125q0 -1.1875 1.625 -2.078125q1.625 -0.90625 3.578125 -1.25q0.859375 -0.15625 1.84375 -0.15625q0.984375 0 2.0 0q2.21875 0 4.515625 0.171875q2.3125 0.15625 3.84375 0.421875q0.9375 0.171875 2.265625 0.734375q1.328125 0.546875 2.5625 1.234375q1.234375 0.671875 1.75 1.265625q0 0 0.296875 0.296875q0.296875 0.296875 0.640625 0.296875q0.515625 0.265625 1.75 1.84375q1.234375 1.578125 2.421875 3.546873q1.203125 1.953125 1.453125 3.484375q0.265625 1.28125 0.390625 2.609375q0.125 1.328125 0.125 2.515625q-0.078125 1.796875 -0.21875 3.59375q-0.125 1.78125 -0.46875 3.75q-0.25 1.78125 -1.015625 4.0q-0.765625 2.21875 -1.578125 4.1875q-0.8125 1.96875 -1.453125 3.25q-0.640625 1.265625 -0.8125 1.265625q-0.515625 0 -0.609375 0.265625q-0.078125 0.25 -0.078125 0.59375q-0.078125 0.765625 -0.890625 2.4375038q-0.8125 1.65625 -2.09375 3.578125q-1.28125 1.921875 -2.640625 3.59375q-1.359375 1.65625 -2.640625 2.5q-2.5625 2.734375 -6.0625 4.65625q-3.5 1.921875 -7.21875 2.90625q-3.703125 0.984375 -6.953125 0.984375zm-0.078125 -5.125q0.859375 0 2.859375 -0.125q2.0 -0.125 3.203125 -0.640625q2.21875 -0.59375 5.234375 -2.34375q3.03125 -1.75 5.515625 -4.3125q2.734375 -2.8125 4.9375 -5.921875q2.21875 -3.1250038 4.359375 -8.421879q1.453125 -3.5 2.171875 -7.203125q0.734375 -3.71875 0.734375 -6.609375q0 -5.203125 -1.96875 -8.484375q-1.96875 -3.296873 -5.125 -4.406248q-1.1875 -0.515625 -2.5625 -0.71875q-1.359375 -0.21875 -2.546875 -0.21875q-0.859375 0 -1.84375 0.09375q-0.96875 0.078125 -1.234375 0.25q-0.6875 0 -1.546875 1.453125q-0.84375 1.453125 -1.578125 3.593748q-0.71875 2.125 -1.3125 4.171875q-0.671875 2.640625 -1.28125 4.1875q-0.59375 1.53125 -1.234375 3.109375q-0.640625 1.578125 -1.578125 4.46875q-1.1875 2.390625 -2.046875 4.875q-0.859375 2.46875 -1.421875 4.3125q-0.546875 1.828125 -0.796875 2.5q-0.515625 1.109375 -1.109375 3.2031288q-0.59375 2.09375 -1.109375 4.484375q-0.515625 2.390625 -0.8125 4.4375q-0.296875 2.046875 -0.296875 3.0625q0 0.78125 0.765625 1.0q0.765625 0.203125 1.625 0.203125zm42.31964 -0.59375q-1.28125 -0.171875 -2.171875 -1.828125q-0.890625 -1.671875 -1.0625 -3.046875q0.078125 -0.671875 0.203125 -1.953125q0.125 -1.28125 0.296875 -2.640625q0.34375 -1.625 0.9375 -3.9687538q0.609375 -2.359375 1.25 -4.734375q0.640625 -2.390625 1.140625 -4.09375q0.515625 -1.71875 0.6875 -2.0625q0.421875 -0.671875 1.359375 -0.328125q0.953125 0.328125 1.546875 1.015625q0.515625 0.6875 0.640625 1.625q0.125 0.9375 -0.265625 2.734375q-0.375 1.78125 -1.40625 5.28125q-0.9375 3.4218788 -1.40625 5.515629q-0.46875 2.078125 -0.375 4.390625q-0.34375 2.890625 -0.515625 3.53125q-0.171875 0.640625 -0.859375 0.5625zm9.8125 -34.04688q-0.34375 0.25 -0.640625 0.21875q-0.296875 -0.046875 -0.984375 -0.484375q-0.59375 -0.078125 -1.5 -0.796875q-0.890625 -0.734375 -1.53125 -1.546875q-0.625 -0.8125 -0.625 -0.984375q-0.09375 -0.84375 0.109375 -2.15625q0.21875 -1.328125 0.90625 -2.390625q0.6875 -1.078125 1.96875 -1.15625q0.34375 0 0.59375 0.078125q0.25 0.078125 1.53125 0.59375q0.6875 1.28125 1.359375 2.859375q0.6875 1.578125 0.59375 3.078125q-0.078125 1.484375 -1.78125 2.6875zm5.971985 32.937504q-0.34375 0 -0.984375 -0.46875q-0.640625 -0.46875 -0.96875 -0.8125q-0.609375 -0.6875 -0.734375 -1.359375q-0.125 -0.6875 -0.125 -3.078125q0 -2.734375 1.109375 -5.921875q1.109375 -3.2031288 3.75 -9.015629l2.828125 -5.96875q0.328125 -0.6875 0.625 -1.015625q0.3125 -0.34375 0.5625 -0.6875q0.34375 0 0.59375 0q0.265625 0 0.265625 0q0.671875 0 1.359375 0.8125q0.6875 0.796875 1.015625 1.734375q0 1.109375 -0.296875 2.3125q-0.296875 1.1875 -2.078125 3.578125q-0.609375 0.9375 -1.59375 3.15625q-0.96875 2.21875 -1.3125 3.84375q-0.09375 0.09375 -0.34375 0.734375q-0.25 0.6250038 -0.5625 1.4062538q-0.296875 0.765625 -0.625 1.4375l-0.4375 1.890625l5.71875 -5.890629q4.015625 -4.015625 6.484375 -5.71875q2.484375 -1.703125 3.921875 -1.453125q1.453125 0.25 2.484375 2.3125q0.59375 0.9375 0.890625 1.65625q0.296875 0.71875 0.375 1.921875q0.09375 1.1875 -0.15625 3.5781288l0 5.296875q1.28125 -0.34375 2.046875 -0.640625q0.765625 -0.296875 1.625 -0.640625q0.765625 -0.34375 1.78125 -0.640625q1.03125 -0.296875 2.5625 -0.390625q-0.078125 1.109375 -0.765625 2.359375q-0.6875 1.234375 -1.71875 2.34375q-1.015625 1.109375 -2.25 1.796875q-1.234375 0.671875 -2.4375 0.671875q-1.109375 0 -2.46875 -1.109375q-1.359375 -1.109375 -1.96875 -2.46875q-0.328125 -0.9375 -0.375 -2.046875q-0.046875 -1.109375 -0.046875 -4.09375l0 -3.1718788q0 -1.359375 -0.8125 -0.796875q-0.8125 0.546875 -1.3125 0.96875q-1.28125 1.109375 -2.703125 2.5625038q-1.40625 1.453125 -2.84375 2.984375q-3.9375 4.109375 -6.546875 6.078125q-2.59375 1.953125 -3.53125 1.953125zm40.272644 1.703125q-3.328125 -1.359375 -4.3125 -3.796875q-0.96875 -2.4375 -0.375 -7.546875q0.171875 -2.6562538 0.171875 -3.5000038q0 -0.859375 -0.9375 -1.703125q-0.265625 -0.34375 -0.90625 -0.9375q-0.625 -0.609375 -0.546875 -1.03125q-0.078125 -0.59375 0.078125 -1.3125q0.171875 -0.734375 0.515625 -0.734375q0.34375 0 0.71875 -0.171875q0.390625 -0.171875 0.734375 0q0.34375 0 0.765625 0.09375q0.4375 0.078125 0.4375 0.421875q0.328125 0.59375 1.09375 0.125q0.78125 -0.46875 1.625 -2.171875q0.859375 -1.375 2.265625 -2.734375q1.40625 -1.375 2.8125 -2.515625q1.40625 -1.15625 2.34375 -1.671875q0.4375 -0.171875 1.28125 -0.421875q0.859375 -0.25 1.84375 -0.421875q0.984375 -0.171875 1.65625 -0.09375q1.546875 0.09375 2.609375 0.859375q1.0625 0.765625 2.0 1.78125q1.109375 0.78125 1.40625 2.0625q0.296875 1.265625 0.125 2.71875q-0.171875 1.453125 -0.765625 2.65625q-0.25 0.84375 -1.453125 2.046875q-1.1875 1.1875 -2.734375 2.296875q-1.53125 1.109375 -2.8125 1.625q-1.109375 0.25 -2.859375 0.421875q-1.734375 0.171875 -3.234375 0.140625q-1.5 -0.046875 -2.0 -0.3125q-0.609375 -0.34375 -0.953125 0.9375038q-0.328125 1.28125 -0.5 3.671875q-0.171875 1.875 0 2.734375q0.171875 0.859375 0.34375 1.1875q0.59375 0.609375 1.65625 1.5q1.0625 0.890625 3.03125 0.296875q1.625 -0.421875 3.203125 -2.21875q1.578125 -1.796875 2.9375 -2.90625q0.34375 -0.59375 1.15625 -0.71875q0.8125 -0.125 1.75 0.125q0.9375 0.59375 0.8125 1.40625q-0.125 0.8125 -0.90625 2.4375q-0.25 0.59375 -1.15625 1.5q-0.890625 0.890625 -1.953125 1.78125q-1.0625 0.890625 -1.921875 1.40625q-2.5625 1.375 -4.78125 1.421875q-2.21875 0.03125 -4.265625 -0.734375zm5.046875 -17.328129q1.875 -0.421875 2.984375 -0.59375q1.109375 -0.171875 2.125 -0.984375q1.03125 -0.8125 2.5625 -3.109375q0.34375 -0.9375 0.21875 -1.875q-0.125 -0.9375 -0.46875 -1.28125q-0.765625 -0.859375 -1.84375 -0.546875q-1.0625 0.296875 -2.0 0.96875q-0.59375 0.265625 -1.75 1.25q-1.15625 0.96875 -2.265625 2.21875q-1.109375 1.234375 -1.796875 2.265625q-0.671875 1.015625 -0.328125 1.1875q-0.171875 0.328125 0.96875 0.421875q1.15625 0.078125 1.59375 0.078125z"
                  fill-rule="nonzero"/>
        </g>
        <g filter="url(#shadowFilter-p.2)">
            <use xlink:href="#p.2" transform="matrix(1.0 0.0 0.0 1.0 0.0 2.0)"/>
        </g>
        <defs>
            <filter id="shadowFilter-p.2" filterUnits="userSpaceOnUse">
                <feGaussianBlur in="SourceAlpha" stdDeviation="2.0" result="blur"/>
                <feComponentTransfer in="blur" color-interpolation-filters="sRGB">
                    <feFuncR type="linear" slope="0" intercept="1.0"/>
                    <feFuncG type="linear" slope="0" intercept="0.0"/>
                    <feFuncB type="linear" slope="0" intercept="0.0"/>
                    <feFuncA type="linear" slope="0.5" intercept="0"/>
                </feComponentTransfer>
            </filter>
        </defs>
        <g id="p.2">
            <path fill="#000000" fill-opacity="0.0"
                  d="m9.192913 116.15956c9.716972 -3.7016678 37.942257 -20.82196 58.301838 -22.209976c20.359581 -1.3880157 47.506126 13.72747 63.855637 13.881889c16.349518 0.15441895 20.97638 -13.418198 34.24147 -12.955383c13.265091 0.46282196 31.00438 15.423889 45.34909 15.732285c14.344696 0.30840302 27.300522 -14.190285 40.719162 -13.881889c13.418625 0.30840302 26.990799 15.26947 39.79265 15.732285c12.801849 0.46281433 25.141724 -13.263779 37.01837 -12.955383c11.876648 0.30840302 26.683289 12.183731 34.241455 14.8057785c7.558197 2.6220474 9.256348 0.7720871 11.1076355 0.92650604"
                  fill-rule="evenodd"/>
            <path stroke="#ffffff" stroke-width="2.0" stroke-linejoin="round" stroke-linecap="butt"
                  d="m9.192913 116.15956c9.716972 -3.7016678 37.942257 -20.82196 58.301838 -22.209976c20.359581 -1.3880157 47.506126 13.72747 63.855637 13.881889c16.349518 0.15441895 20.97638 -13.418198 34.24147 -12.955383c13.265091 0.46282196 31.00438 15.423889 45.34909 15.732285c14.344696 0.30840302 27.300522 -14.190285 40.719162 -13.881889c13.418625 0.30840302 26.990799 15.26947 39.79265 15.732285c12.801849 0.46281433 25.141724 -13.263779 37.01837 -12.955383c11.876648 0.30840302 26.683289 12.183731 34.241455 14.8057785c7.558197 2.6220474 9.256348 0.7720871 11.1076355 0.92650604"
                  fill-rule="evenodd"/>
        </g>
    </g>
</svg>
